<?xml version="1.0" encoding="UTF-8" standalone="no"?><svg width="352.4px" height="593.6px" xmlns="http://www.w3.org/2000/svg" viewBox="73.80000000000001 -221.8 352.4 593.6" style="background: rgba(0, 0, 0, 0);" preserveAspectRatio="xMidYMid"><defs><filter id="editing-hole" x="-100%" y="-100%" width="300%" height="300%"><feFlood flood-color="#000000" result="black"></feFlood><feMorphology operator="dilate" radius="2" in="SourceGraphic" result="erode"></feMorphology><feGaussianBlur in="erode" stdDeviation="4" result="blur"></feGaussianBlur><feOffset in="blur" dx="2" dy="2" result="offset"></feOffset><feComposite operator="atop" in="offset" in2="black" result="merge"></feComposite><feComposite operator="in" in="merge" in2="SourceGraphic" result="inner-shadow"></feComposite></filter></defs><g filter="url(#editing-hole)"><g transform="translate(130.4522705078125, 181.98500061035156)"><path d="M199.22-189.16L199.80-189.16L199.80-189.16Q201.76-189.16 202.78-188.04L202.78-188.04L202.78-188.04Q203.81-186.91 203.81-185.35L203.81-185.35L203.81-185.35Q203.81-184.28 202.54-183.15L202.54-183.15L202.54-183.15Q201.27-182.03 199.37-180.91L199.37-180.91L199.37-180.91Q197.46-179.79 195.36-178.66L195.36-178.66L195.36-178.66Q193.26-177.54 191.50-176.37L191.50-176.37L191.50-176.37Q199.22-168.85 205.32-159.96L205.32-159.96L205.32-159.96Q211.43-151.07 215.72-140.82L215.72-140.82L215.72-140.82Q220.02-130.57 222.31-119.14L222.31-119.14L222.31-119.14Q224.61-107.71 224.61-95.21L224.61-95.21L224.61-95.21Q224.61-81.35 220.26-69.78L220.26-69.78L220.26-69.78Q215.92-58.20 208.25-48.73L208.25-48.73L208.25-48.73Q200.59-39.26 190.19-31.79L190.19-31.79L190.19-31.79Q179.79-24.32 167.68-18.65L167.68-18.65L167.68-18.65Q170.21-16.50 173.44-15.58L173.44-15.58L173.44-15.58Q176.66-14.65 180.37-14.65L180.37-14.65L180.37-14.65Q184.67-14.65 189.50-15.77L189.50-15.77L189.50-15.77Q194.34-16.89 199.27-18.65L199.27-18.65L199.27-18.65Q204.20-20.41 209.08-22.71L209.08-22.71L209.08-22.71Q213.96-25 218.36-27.34L218.36-27.34L218.36-27.34Q223.63-30.18 228.71-33.35L228.71-33.35L228.71-33.35Q233.79-36.52 239.06-40.14L239.06-40.14L239.06-40.14Q239.45-40.43 240.14-40.43L240.14-40.43L240.14-40.43Q241.11-40.43 241.89-39.55L241.89-39.55L241.89-39.55Q242.68-38.67 242.68-37.30L242.68-37.30L242.68-37.30Q242.68-36.04 241.31-34.42L241.31-34.42L241.31-34.42Q239.94-32.81 237.70-31.05L237.70-31.05L237.70-31.05Q235.45-29.30 232.62-27.49L232.62-27.49L232.62-27.49Q229.79-25.68 226.81-23.97L226.81-23.97L226.81-23.97Q223.83-22.27 221.00-20.75L221.00-20.75L221.00-20.75Q218.16-19.24 216.02-18.16L216.02-18.16L216.02-18.16Q211.04-15.53 205.37-13.04L205.37-13.04L205.37-13.04Q199.71-10.55 193.80-8.64L193.80-8.64L193.80-8.64Q187.89-6.74 181.88-5.57L181.88-5.57L181.88-5.57Q175.88-4.39 170.21-4.39L170.21-4.39L170.21-4.39Q165.53-4.39 161.18-5.37L161.18-5.37L161.18-5.37Q156.84-6.35 152.93-8.40L152.93-8.40L148.24-10.84L148.24-10.84Q138.18-7.42 127.83-4.98L127.83-4.98L127.83-4.98Q117.48-2.54 107.37-1.03L107.37-1.03L107.37-1.03Q97.27 0.49 87.74 1.22L87.74 1.22L87.74 1.22Q78.22 1.95 69.82 1.95L69.82 1.95L69.82 1.95Q62.79 1.95 55.66 0.59L55.66 0.59L55.66 0.59Q48.54-0.78 41.21-2.44L41.21-2.44L41.21-2.44Q34.18 0.68 26.86 2.44L26.86 2.44L26.86 2.44Q19.53 4.20 11.62 4.20L11.62 4.20L11.62 4.20Q9.67 4.20 7.62 3.61L7.62 3.61L7.62 3.61Q5.57 3.03 3.86 1.86L3.86 1.86L3.86 1.86Q2.15 0.68 1.07-1.07L1.07-1.07L1.07-1.07Q0-2.83 0-5.18L0-5.18L0-5.18Q0-7.91 1.81-9.62L1.81-9.62L1.81-9.62Q3.61-11.33 6.20-12.26L6.20-12.26L6.20-12.26Q8.79-13.18 11.67-13.48L11.67-13.48L11.67-13.48Q14.55-13.77 16.80-13.77L16.80-13.77L16.80-13.77Q20.02-13.77 23.24-13.53L23.24-13.53L23.24-13.53Q26.46-13.28 29.59-12.79L29.59-12.79L29.59-12.79Q40.63-20.61 50.34-30.22L50.34-30.22L50.34-30.22Q60.06-39.84 68.95-50.59L68.95-50.59L68.95-50.59Q77.83-61.33 86.18-72.85L86.18-72.85L86.18-72.85Q94.53-84.38 102.78-96.09L102.78-96.09L102.78-96.09Q111.04-107.81 119.43-119.38L119.43-119.38L119.43-119.38Q127.83-130.96 136.82-141.65L136.82-141.65L136.82-141.65Q145.80-152.34 155.71-161.91L155.71-161.91L155.71-161.91Q165.63-171.48 176.86-179.20L176.86-179.20L176.86-179.20Q165.23-189.26 148.44-195.21L148.44-195.21L148.44-195.21Q131.64-201.17 109.57-201.17L109.57-201.17L109.57-201.17Q99.12-201.17 87.89-199.41L87.89-199.41L87.89-199.41Q76.66-197.66 65.92-193.95L65.92-193.95L65.92-193.95Q55.18-190.23 45.51-184.52L45.51-184.52L45.51-184.52Q35.84-178.81 28.56-170.90L28.56-170.90L28.56-170.90Q21.29-162.99 17.04-152.78L17.04-152.78L17.04-152.78Q12.79-142.58 12.79-129.98L12.79-129.98L12.79-129.98Q12.79-122.17 14.40-116.80L14.40-116.80L14.40-116.80Q16.02-111.43 18.90-108.06L18.90-108.06L18.90-108.06Q21.78-104.69 25.73-103.17L25.73-103.17L25.73-103.17Q29.69-101.66 34.38-101.66L34.38-101.66L34.38-101.66Q40.82-101.66 48.14-104.20L48.14-104.20L48.14-104.20Q55.47-106.74 62.70-110.99L62.70-110.99L62.70-110.99Q69.92-115.23 76.61-120.75L76.61-120.75L76.61-120.75Q83.30-126.27 88.43-132.18L88.43-132.18L88.43-132.18Q93.55-138.09 96.58-143.95L96.58-143.95L96.58-143.95Q99.61-149.80 99.61-154.79L99.61-154.79L99.61-154.79Q99.61-157.62 98.24-160.64L98.24-160.64L98.24-160.64Q97.95-161.04 97.95-161.52L97.95-161.52L97.95-161.52Q97.95-162.11 98.44-162.60L98.44-162.60L98.44-162.60Q98.93-163.09 99.56-163.43L99.56-163.43L99.56-163.43Q100.20-163.77 100.93-163.96L100.93-163.96L100.93-163.96Q101.66-164.16 102.25-164.16L102.25-164.16L102.25-164.16Q103.71-164.16 104.88-163.13L104.88-163.13L104.88-163.13Q106.05-162.11 106.05-160.16L106.05-160.16L106.05-159.57L106.05-159.57Q108.79-152.83 108.79-145.80L108.79-145.80L108.79-145.80Q108.79-138.67 105.96-132.23L105.96-132.23L105.96-132.23Q103.13-125.78 98.29-120.31L98.29-120.31L98.29-120.31Q93.46-114.84 86.96-110.50L86.96-110.50L86.96-110.50Q80.47-106.15 73.19-103.08L73.19-103.08L73.19-103.08Q65.92-100 58.15-98.34L58.15-98.34L58.15-98.34Q50.39-96.68 42.97-96.68L42.97-96.68L42.97-96.68Q35.35-96.68 28.52-98.58L28.52-98.58L28.52-98.58Q21.68-100.49 16.55-104.49L16.55-104.49L16.55-104.49Q11.43-108.50 8.40-114.84L8.40-114.84L8.40-114.84Q5.37-121.19 5.37-129.98L5.37-129.98L5.37-129.98Q5.37-142.68 9.47-153.52L9.47-153.52L9.47-153.52Q13.57-164.36 20.65-173.24L20.65-173.24L20.65-173.24Q27.73-182.13 37.30-188.92L37.30-188.92L37.30-188.92Q46.88-195.70 57.81-200.34L57.81-200.34L57.81-200.34Q68.75-204.98 80.57-207.37L80.57-207.37L80.57-207.37Q92.38-209.77 104.00-209.77L104.00-209.77L104.00-209.77Q127.34-209.77 147.36-203.03L147.36-203.03L147.36-203.03Q167.38-196.29 183.59-183.40L183.59-183.40L183.59-183.40Q187.21-185.35 191.02-186.87L191.02-186.87L191.02-186.87Q194.82-188.38 199.22-189.16L199.22-189.16ZM144.14-28.22L144.14-28.22L144.14-28.22Q148.73-30.76 152.44-30.76L152.44-30.76L152.44-30.76Q154.00-30.76 156.35-29.98L156.35-29.98L156.35-29.98Q168.07-38.18 176.95-48.44L176.95-48.44L176.95-48.44Q185.84-58.69 191.85-70.12L191.85-70.12L191.85-70.12Q197.85-81.54 200.88-93.65L200.88-93.65L200.88-93.65Q203.91-105.76 203.91-117.68L203.91-117.68L203.91-117.68Q203.91-132.91 199.17-146.58L199.17-146.58L199.17-146.58Q194.43-160.25 184.67-171.48L184.67-171.48L184.67-171.48Q176.07-164.55 167.97-155.27L167.97-155.27L167.97-155.27Q159.86-146.00 151.95-135.21L151.95-135.21L151.95-135.21Q144.04-124.41 136.33-112.60L136.33-112.60L136.33-112.60Q128.61-100.78 120.80-88.82L120.80-88.82L120.80-88.82Q112.99-76.86 104.93-65.23L104.93-65.23L104.93-65.23Q96.88-53.61 88.43-43.12L88.43-43.12L88.43-43.12Q79.98-32.62 70.95-23.73L70.95-23.73L70.95-23.73Q61.91-14.84 52.15-8.50L52.15-8.50L52.15-8.50Q57.71-7.42 63.23-6.69L63.23-6.69L63.23-6.69Q68.75-5.96 74.41-5.96L74.41-5.96L74.41-5.96Q93.16-5.96 108.84-9.47L108.84-9.47L108.84-9.47Q124.51-12.99 138.09-19.43L138.09-19.43L138.09-19.43Q137.79-20.12 137.79-21.09L137.79-21.09L137.79-21.09Q137.79-22.75 139.26-24.51L139.26-24.51L139.26-24.51Q140.72-26.27 144.14-28.22ZM12.79-3.61L12.79-3.61L12.79-3.61Q16.21-3.61 19.92-5.96L19.92-5.96L18.46-5.96L18.46-5.96Q15.92-5.96 13.43-5.66L13.43-5.66L13.43-5.66Q10.94-5.37 8.79-4.59L8.79-4.59L8.79-4.59Q9.77-4.00 10.74-3.81L10.74-3.81L10.74-3.81Q11.72-3.61 12.79-3.61Z" fill="#ccc"></path></g></g><style>text {
  font-size: 64px;
  font-family: Arial Black;
  dominant-baseline: central;
  text-anchor: middle;
}</style></svg>